<mxfile host="65bd71144e">
    <diagram id="8HiHqf2lQmX90YXQ_JBA" name="Page-1">
        <mxGraphModel dx="1792" dy="562" grid="1" gridSize="10" guides="1" tooltips="1" connect="1" arrows="1" fold="1" page="1" pageScale="1" pageWidth="827" pageHeight="1169" math="0" shadow="0">
            <root>
                <mxCell id="0"/>
                <mxCell id="1" parent="0"/>
                <mxCell id="4" value="" style="edgeStyle=none;html=1;" edge="1" parent="1" source="2" target="3">
                    <mxGeometry relative="1" as="geometry"/>
                </mxCell>
                <mxCell id="2" value="Start" style="ellipse;whiteSpace=wrap;html=1;" vertex="1" parent="1">
                    <mxGeometry x="354" y="10" width="120" height="80" as="geometry"/>
                </mxCell>
                <mxCell id="6" value="" style="edgeStyle=none;html=1;" edge="1" parent="1" source="3" target="5">
                    <mxGeometry relative="1" as="geometry"/>
                </mxCell>
                <mxCell id="3" value="Start Screen" style="whiteSpace=wrap;html=1;" vertex="1" parent="1">
                    <mxGeometry x="354" y="180" width="120" height="60" as="geometry"/>
                </mxCell>
                <mxCell id="8" value="" style="edgeStyle=none;html=1;" edge="1" parent="1" source="5" target="7">
                    <mxGeometry relative="1" as="geometry"/>
                </mxCell>
                <mxCell id="45" value="" style="edgeStyle=none;html=1;" edge="1" parent="1" source="5" target="44">
                    <mxGeometry relative="1" as="geometry"/>
                </mxCell>
                <mxCell id="47" value="" style="edgeStyle=none;html=1;" edge="1" parent="1" source="5" target="46">
                    <mxGeometry relative="1" as="geometry"/>
                </mxCell>
                <mxCell id="68" style="edgeStyle=none;html=1;exitX=1;exitY=0;exitDx=0;exitDy=0;" edge="1" parent="1" source="5" target="66">
                    <mxGeometry relative="1" as="geometry"/>
                </mxCell>
                <mxCell id="5" value="Login Menu" style="whiteSpace=wrap;html=1;" vertex="1" parent="1">
                    <mxGeometry x="354" y="320" width="120" height="60" as="geometry"/>
                </mxCell>
                <mxCell id="29" value="" style="edgeStyle=none;html=1;" edge="1" parent="1" source="44" target="32">
                    <mxGeometry relative="1" as="geometry">
                        <mxPoint x="614" y="450" as="targetPoint"/>
                    </mxGeometry>
                </mxCell>
                <mxCell id="36" style="edgeStyle=none;html=1;exitX=0;exitY=0.5;exitDx=0;exitDy=0;" edge="1" parent="1" source="7" target="37">
                    <mxGeometry relative="1" as="geometry">
                        <mxPoint x="80" y="350" as="targetPoint"/>
                    </mxGeometry>
                </mxCell>
                <mxCell id="53" value="" style="edgeStyle=none;html=1;" edge="1" parent="1" source="7" target="52">
                    <mxGeometry relative="1" as="geometry"/>
                </mxCell>
                <mxCell id="55" value="" style="edgeStyle=none;html=1;" edge="1" parent="1" source="7" target="54">
                    <mxGeometry relative="1" as="geometry"/>
                </mxCell>
                <mxCell id="57" value="" style="edgeStyle=none;html=1;" edge="1" parent="1" source="7" target="56">
                    <mxGeometry relative="1" as="geometry"/>
                </mxCell>
                <mxCell id="7" value="Register Form" style="whiteSpace=wrap;html=1;" vertex="1" parent="1">
                    <mxGeometry x="155" y="320" width="120" height="60" as="geometry"/>
                </mxCell>
                <mxCell id="12" value="" style="edgeStyle=none;html=1;" edge="1" parent="1" source="9" target="11">
                    <mxGeometry relative="1" as="geometry"/>
                </mxCell>
                <mxCell id="65" value="" style="edgeStyle=none;html=1;" edge="1" parent="1" source="9" target="64">
                    <mxGeometry relative="1" as="geometry"/>
                </mxCell>
                <mxCell id="71" value="Logout" style="edgeStyle=none;html=1;exitX=0;exitY=0.25;exitDx=0;exitDy=0;" edge="1" parent="1" source="9" target="5">
                    <mxGeometry relative="1" as="geometry">
                        <Array as="points">
                            <mxPoint x="310" y="570"/>
                            <mxPoint x="310" y="420"/>
                        </Array>
                    </mxGeometry>
                </mxCell>
                <mxCell id="9" value="Main Menu" style="whiteSpace=wrap;html=1;" vertex="1" parent="1">
                    <mxGeometry x="354" y="600" width="120" height="60" as="geometry"/>
                </mxCell>
                <mxCell id="14" value="" style="edgeStyle=none;html=1;" edge="1" parent="1" source="11" target="13">
                    <mxGeometry relative="1" as="geometry"/>
                </mxCell>
                <mxCell id="70" style="edgeStyle=none;html=1;exitX=1;exitY=0;exitDx=0;exitDy=0;" edge="1" parent="1" source="11" target="69">
                    <mxGeometry relative="1" as="geometry"/>
                </mxCell>
                <mxCell id="11" value="Pizza Menu" style="whiteSpace=wrap;html=1;" vertex="1" parent="1">
                    <mxGeometry x="354" y="740" width="120" height="60" as="geometry"/>
                </mxCell>
                <mxCell id="16" value="" style="edgeStyle=none;html=1;" edge="1" parent="1" source="13" target="15">
                    <mxGeometry relative="1" as="geometry"/>
                </mxCell>
                <mxCell id="13" value="Pizza Size Menu" style="whiteSpace=wrap;html=1;" vertex="1" parent="1">
                    <mxGeometry x="354" y="880" width="120" height="60" as="geometry"/>
                </mxCell>
                <mxCell id="18" value="" style="edgeStyle=none;html=1;" edge="1" parent="1" source="15" target="17">
                    <mxGeometry relative="1" as="geometry"/>
                </mxCell>
                <mxCell id="25" value="Order More" style="edgeStyle=none;html=1;exitX=1;exitY=0.5;exitDx=0;exitDy=0;entryX=1;entryY=0.5;entryDx=0;entryDy=0;" edge="1" parent="1" source="15" target="11">
                    <mxGeometry relative="1" as="geometry">
                        <Array as="points">
                            <mxPoint x="560" y="1050"/>
                            <mxPoint x="560" y="770"/>
                        </Array>
                    </mxGeometry>
                </mxCell>
                <mxCell id="15" value="Order More or&amp;nbsp; Payment Menu" style="whiteSpace=wrap;html=1;" vertex="1" parent="1">
                    <mxGeometry x="320" y="1020" width="190" height="60" as="geometry"/>
                </mxCell>
                <mxCell id="20" value="" style="edgeStyle=none;html=1;" edge="1" parent="1" source="17" target="19">
                    <mxGeometry relative="1" as="geometry"/>
                </mxCell>
                <mxCell id="17" value="Payment Screen" style="whiteSpace=wrap;html=1;" vertex="1" parent="1">
                    <mxGeometry x="355" y="1160" width="120" height="60" as="geometry"/>
                </mxCell>
                <mxCell id="22" value="" style="edgeStyle=none;html=1;exitX=0;exitY=0.5;exitDx=0;exitDy=0;" edge="1" parent="1" source="19">
                    <mxGeometry relative="1" as="geometry">
                        <mxPoint x="330" y="1350" as="sourcePoint"/>
                        <mxPoint x="354" y="631" as="targetPoint"/>
                        <Array as="points">
                            <mxPoint x="240" y="1331"/>
                            <mxPoint x="240" y="631"/>
                        </Array>
                    </mxGeometry>
                </mxCell>
                <mxCell id="19" value="Payment Successful Screen" style="whiteSpace=wrap;html=1;" vertex="1" parent="1">
                    <mxGeometry x="330" y="1300" width="170" height="60" as="geometry"/>
                </mxCell>
                <mxCell id="32" value="Wrong Password Screen" style="whiteSpace=wrap;html=1;" vertex="1" parent="1">
                    <mxGeometry x="730" y="320" width="144" height="60" as="geometry"/>
                </mxCell>
                <mxCell id="37" value="Incomplete Password Screen" style="whiteSpace=wrap;html=1;" vertex="1" parent="1">
                    <mxGeometry x="-40" y="390" width="160" height="60" as="geometry"/>
                </mxCell>
                <mxCell id="60" value="" style="edgeStyle=none;html=1;" edge="1" parent="1" source="44" target="59">
                    <mxGeometry relative="1" as="geometry"/>
                </mxCell>
                <mxCell id="63" value="" style="edgeStyle=none;html=1;" edge="1" parent="1" source="44" target="62">
                    <mxGeometry relative="1" as="geometry"/>
                </mxCell>
                <mxCell id="44" value="Login From" style="whiteSpace=wrap;html=1;" vertex="1" parent="1">
                    <mxGeometry x="554" y="320" width="120" height="60" as="geometry"/>
                </mxCell>
                <mxCell id="48" style="edgeStyle=none;html=1;exitX=0.5;exitY=1;exitDx=0;exitDy=0;" edge="1" parent="1" source="46" target="9">
                    <mxGeometry relative="1" as="geometry"/>
                </mxCell>
                <mxCell id="46" value="Login Successful Screen" style="whiteSpace=wrap;html=1;" vertex="1" parent="1">
                    <mxGeometry x="340" y="460" width="150" height="60" as="geometry"/>
                </mxCell>
                <mxCell id="52" value="Username not available" style="whiteSpace=wrap;html=1;" vertex="1" parent="1">
                    <mxGeometry x="130" y="460" width="140" height="60" as="geometry"/>
                </mxCell>
                <mxCell id="58" style="edgeStyle=none;html=1;exitX=1;exitY=0.5;exitDx=0;exitDy=0;entryX=0.5;entryY=0;entryDx=0;entryDy=0;" edge="1" parent="1" source="54" target="44">
                    <mxGeometry relative="1" as="geometry"/>
                </mxCell>
                <mxCell id="54" value="Account created successful" style="whiteSpace=wrap;html=1;" vertex="1" parent="1">
                    <mxGeometry x="140" y="210" width="150" height="60" as="geometry"/>
                </mxCell>
                <mxCell id="56" value="Full Database" style="whiteSpace=wrap;html=1;" vertex="1" parent="1">
                    <mxGeometry x="-20" y="250" width="120" height="60" as="geometry"/>
                </mxCell>
                <mxCell id="61" style="edgeStyle=none;html=1;exitX=0;exitY=0.5;exitDx=0;exitDy=0;" edge="1" parent="1" source="59" target="46">
                    <mxGeometry relative="1" as="geometry"/>
                </mxCell>
                <mxCell id="59" value="Login Successful" style="whiteSpace=wrap;html=1;" vertex="1" parent="1">
                    <mxGeometry x="554" y="460" width="120" height="60" as="geometry"/>
                </mxCell>
                <mxCell id="62" value="Field not filled" style="whiteSpace=wrap;html=1;" vertex="1" parent="1">
                    <mxGeometry x="730" y="410" width="120" height="60" as="geometry"/>
                </mxCell>
                <mxCell id="64" value="Invalid option" style="whiteSpace=wrap;html=1;" vertex="1" parent="1">
                    <mxGeometry x="554" y="600" width="120" height="60" as="geometry"/>
                </mxCell>
                <mxCell id="66" value="Invalid option" style="whiteSpace=wrap;html=1;" vertex="1" parent="1">
                    <mxGeometry x="554" y="200" width="120" height="60" as="geometry"/>
                </mxCell>
                <mxCell id="69" value="Invalid option" style="whiteSpace=wrap;html=1;" vertex="1" parent="1">
                    <mxGeometry x="554" y="680" width="120" height="60" as="geometry"/>
                </mxCell>
            </root>
        </mxGraphModel>
    </diagram>
</mxfile>